<?xml version="1.0" encoding="UTF-8"?>
<svg xmlns="http://www.w3.org/2000/svg" viewBox="0 0 1024 1024" width="1024" height="1024">
<rect width="1024" height="1024" fill="#FFFFFF"/>
<g transform="translate(0.000000,1024.000000) scale(0.100000,-0.100000)" fill="#FFFFFF" stroke="none">
<path d="M4885 9704 c-625 -68 -1276 -396 -1781 -899 -527 -525 -854 -1169
-1072 -2115 -146 -630 -224 -1104 -274 -1655 -20 -216 -17 -915 4 -1080 10
-71 20 -155 24 -186 l6 -57 -99 -4 c-279 -11 -428 -234 -353 -528 103 -406
535 -831 985 -969 292 -90 486 -82 652 27 l52 34 108 -25 c290 -69 425 -64
1053 38 479 77 497 79 775 80 326 0 397 -10 1045 -155 941 -210 1237 -239
1522 -150 85 27 82 28 96 -41 7 -33 24 -91 37 -130 12 -38 22 -69 20 -69 -1 0
-67 7 -146 15 -1749 180 -5157 87 -5673 -155 -269 -127 352 -257 1554 -324
743 -42 2188 -56 2875 -28 1238 51 1995 140 2158 254 58 41 22 81 -111 124
l-81 26 58 48 c494 411 707 1404 369 1722 l-60 57 18 188 c67 677 -50 1496
-379 2638 -222 770 -416 1316 -597 1677 -492 983 -1149 1494 -2085 1623 -116
16 -603 29 -700 19z"/>
</g>
<g transform="translate(0.000000,1024.000000) scale(0.100000,-0.100000)" fill="#E5E5E5" stroke="none">
<path d="M4815 9694 c-808 -109 -1617 -636 -2124 -1384 -347 -511 -542 -1033
-740 -1986 -155 -744 -205 -1191 -205 -1824 -1 -427 0 -431 40 -741 l6 -47
-98 -4 c-281 -11 -429 -233 -355 -529 84 -333 415 -708 786 -889 184 -90 333
-129 525 -137 149 -6 212 10 315 77 l65 42 82 -20 c155 -39 221 -47 403 -46
192 0 244 6 715 84 348 58 456 71 660 77 309 10 439 -8 1066 -146 1038 -228
1235 -249 1558 -166 50 12 94 20 97 16 3 -3 16 -46 28 -95 12 -49 28 -103 35
-120 l13 -32 -131 12 c-767 72 -1590 99 -2686 91 -743 -6 -964 -12 -1490 -42
-1353 -77 -1931 -236 -1362 -375 338 -83 933 -140 1897 -182 391 -17 2043 -17
2455 0 1344 56 2127 166 2108 295 -4 30 -61 65 -144 89 l-72 21 47 37 c186
147 363 423 455 707 68 212 81 296 81 513 0 277 -34 391 -153 508 l-64 64 17
171 c51 544 17 966 -140 1713 -167 790 -530 1964 -769 2484 -466 1010 -1135
1585 -2021 1735 -275 46 -678 59 -900 29z m-1362 -929 c138 -112 285 -362 381
-646 44 -132 136 -438 136 -454 0 -7 -32 -32 -72 -55 -145 -86 -203 -173 -196
-295 21 -387 766 -555 1106 -250 139 125 138 303 -4 442 -65 63 -66 66 -10
202 249 607 557 889 1030 941 291 33 565 -78 763 -309 522 -610 622 -1539 200
-1857 -173 -130 -461 -210 -927 -258 -779 -81 -1682 -17 -2295 161 -499 145
-910 397 -1024 627 -151 307 -17 761 381 1296 127 169 433 500 464 500 7 0 37
-20 67 -45z"/>
<path d="M3190 8119 c-167 -66 -243 -404 -138 -613 132 -263 424 -44 405 303
-11 229 -128 365 -267 310z"/>
<path d="M5642 7958 c-174 -58 -289 -275 -254 -479 36 -209 183 -344 376 -344
384 0 530 536 212 776 -90 69 -217 86 -334 47z"/>
</g>
<g transform="translate(0.000000,1024.000000) scale(0.100000,-0.100000)" fill="#CCCCCC" stroke="none">
<path d="M4825 9695 c-1103 -157 -2080 -985 -2532 -2145 -235 -603 -450 -1599
-530 -2460 -25 -269 -25 -943 0 -1135 9 -71 19 -155 23 -186 l6 -56 -98 -5
c-272 -13 -428 -235 -359 -508 115 -457 567 -882 1075 -1012 255 -65 439 -46
578 60 l34 26 91 -22 c171 -40 222 -46 397 -46 187 0 238 6 710 84 359 60 448
70 670 77 320 9 436 -6 1006 -132 1080 -239 1288 -262 1612 -180 53 14 99 25
103 25 3 0 12 -28 19 -62 7 -35 24 -94 36 -132 l24 -68 -53 6 c-1181 139
-3798 134 -5077 -10 -582 -65 -857 -156 -720 -238 409 -241 3520 -346 5505
-185 623 50 1024 122 1108 200 l32 29 -32 29 c-19 17 -61 39 -105 52 -95 30
-96 31 -48 64 101 70 252 261 341 429 142 270 203 508 204 791 0 276 -38 403
-156 516 l-61 59 16 178 c25 279 29 422 17 628 -44 741 -268 1706 -685 2940
-179 531 -388 964 -628 1296 -463 644 -1007 978 -1768 1083 -164 23 -622 29
-755 10z m-1378 -924 c136 -107 283 -349 378 -621 45 -129 145 -463 145 -484
0 -8 -28 -32 -62 -52 -243 -147 -278 -352 -90 -526 284 -262 890 -227 1060 60
23 41 27 58 27 127 0 99 -24 154 -102 230 -68 68 -68 70 12 258 243 564 549
837 998 888 317 35 598 -84 801 -341 213 -269 345 -547 408 -861 33 -169 33
-467 -1 -589 -73 -266 -217 -417 -481 -504 -664 -219 -2044 -219 -2870 0 -562
149 -1015 415 -1133 664 -144 306 -15 752 367 1268 140 189 448 522 483 522 6
0 33 -17 60 -39z m-477 -2410 c52 -11 185 -47 295 -80 362 -108 607 -160 930
-200 704 -88 1243 -94 1983 -25 95 9 175 14 177 12 2 -1 -30 -32 -70 -67 -306
-266 -603 -627 -761 -926 -217 -411 -151 -777 203 -1128 418 -414 1059 -553
1658 -360 186 60 335 173 335 254 0 23 -105 4 -292 -51 -289 -86 -374 -102
-543 -103 -355 0 -691 131 -943 368 -240 226 -332 460 -274 695 184 743 1656
1696 2197 1423 74 -38 107 -68 205 -190 168 -209 288 -607 365 -1208 115 -904
16 -1525 -323 -2035 -233 -351 -510 -520 -882 -537 -243 -11 -440 20 -1138
177 -271 61 -557 122 -637 135 -377 64 -709 54 -1205 -35 -444 -80 -587 -95
-805 -86 -145 6 -204 13 -291 37 -41 11 -42 12 -37 49 7 51 -13 160 -42 232
-109 268 -563 676 -993 892 -89 45 -94 54 -116 226 -65 523 -43 1269 54 1817
72 406 246 648 520 725 86 24 293 19 430 -11z"/>
<path d="M3179 8110 c-247 -130 -223 -720 29 -720 177 0 304 306 227 548 -52
164 -148 229 -256 172z"/>
<path d="M5684 7971 c-305 -79 -405 -499 -175 -729 236 -236 611 -70 638 283
13 173 -87 355 -232 421 -60 28 -174 40 -231 25z"/>
</g>
<g transform="translate(0.000000,1024.000000) scale(0.100000,-0.100000)" fill="#000000" stroke="none">
<path d="M4881 9699 c-893 -101 -1784 -708 -2300 -1567 -287 -478 -460 -989
-647 -1916 -196 -971 -245 -1845 -139 -2482 l5 -32 -64 5 c-240 20 -430 -168
-413 -407 30 -417 499 -927 997 -1084 281 -89 499 -82 647 20 59 41 54 41 216
5 268 -59 422 -50 1132 68 304 50 422 61 665 61 294 0 392 -15 1025 -155 382
-85 700 -148 885 -176 250 -37 553 -18 710 45 13 5 20 -11 37 -82 46 -187 101
-274 207 -330 69 -36 201 -38 288 -3 211 83 445 356 575 668 204 492 185 1019
-43 1182 -41 29 -41 34 -18 278 61 633 -62 1467 -376 2563 -250 874 -470 1470
-684 1855 -494 889 -1123 1349 -2006 1466 -169 23 -570 33 -699 18z m-1387
-968 c190 -184 293 -409 482 -1062 3 -12 -16 -28 -67 -59 -149 -88 -203 -165
-204 -285 -1 -229 274 -407 630 -409 479 -3 736 328 460 593 -65 63 -65 60 -3
209 256 617 593 913 1069 939 398 22 681 -164 944 -622 276 -480 330 -1065
130 -1395 -149 -246 -477 -364 -1200 -432 -188 -18 -948 -18 -1145 0 -907 81
-1467 260 -1887 603 -277 227 -303 580 -76 1032 152 304 353 578 614 840 160
160 140 156 253 48z m-549 -2362 c112 -23 129 -27 410 -110 326 -95 590 -147
960 -189 642 -72 1117 -77 1758 -19 125 11 245 19 265 17 l37 -3 -36 -22 c-53
-33 -431 -421 -528 -543 -179 -223 -334 -492 -383 -665 -49 -174 -27 -389 58
-558 315 -625 1163 -932 1896 -687 163 55 297 145 325 219 20 55 -24 52 -263
-19 -329 -98 -361 -104 -564 -104 -420 0 -809 179 -1055 487 -155 193 -209
394 -160 591 108 428 755 1042 1385 1311 261 112 418 149 606 143 168 -5 244
-37 344 -146 166 -180 259 -377 335 -709 167 -731 193 -1477 69 -1976 -106
-424 -360 -831 -635 -1018 -171 -116 -316 -159 -560 -166 -273 -8 -410 13
-1109 171 -751 169 -832 181 -1195 173 -256 -6 -358 -17 -665 -73 -367 -66
-438 -75 -648 -81 -202 -6 -317 3 -428 31 l-49 12 -6 95 c-10 154 -53 247
-190 413 -197 237 -485 466 -808 640 -125 68 -126 69 -150 261 -76 591 -25
1599 100 1992 148 462 419 626 884 532z"/>
<path d="M3182 8109 c-128 -64 -211 -317 -162 -495 52 -189 138 -258 257 -205
111 51 203 281 176 443 -37 216 -145 319 -271 257z"/>
<path d="M5682 7965 c-299 -83 -396 -479 -176 -715 237 -254 637 -62 637 305
0 269 -231 474 -461 410z"/>
</g>
</svg>
